<svg width="147" height="361" viewBox="0 0 147 361" fill="none" xmlns="http://www.w3.org/2000/svg">
<g clip-path="url(#clip0_690_227)">
<path d="M11.4546 355.761C10.9774 355.761 10.9774 355.761 11.4546 355.761V337.187H25.2955L25.7728 355.761C25.2955 355.761 12.8865 355.761 11.4546 355.761Z" fill="white"/>
<path d="M11.4546 355.761C10.9774 355.761 10.9774 355.761 11.4546 355.761ZM11.4546 355.761V337.187H25.2955L25.7728 355.761C25.2955 355.761 12.8865 355.761 11.4546 355.761Z" stroke="black" stroke-width="2" stroke-miterlimit="10"/>
<path d="M44.3867 356.237V337.664H58.2276L58.7049 356.237C58.7049 356.237 46.2958 356.237 44.3867 356.237Z" fill="white" stroke="black" stroke-width="2" stroke-miterlimit="10"/>
<path d="M34.8408 59.5317V82.8681H50.5908V67.628" fill="white"/>
<path d="M34.8408 59.5317V82.8681H50.5908V67.628" stroke="black" stroke-width="2" stroke-miterlimit="10"/>
<path d="M32.9323 53.8166C32.9323 55.2454 33.8868 58.5791 36.7505 61.4367C39.1368 63.8179 42.0005 64.7704 44.3868 65.2467C47.2505 66.1992 51.5459 67.1517 56.3186 65.2467C60.6141 63.3417 62.5232 60.0079 63.955 57.6266C64.9095 56.1979 66.8186 52.3879 67.7732 45.7203C68.7277 38.5765 70.1595 28.0989 63.955 22.3839C58.705 17.6214 51.0686 18.0976 48.205 18.5739C46.7732 18.5739 42.0005 19.0501 36.7505 22.3839C34.3641 23.8127 31.0232 26.1939 29.1141 30.4802C25.7732 36.1952 28.1595 42.8628 29.1141 45.7203C30.0686 49.5303 31.5005 51.9116 32.9323 53.8166Z" fill="white" stroke="black" stroke-width="2" stroke-miterlimit="10"/>
<path d="M26.2502 47.1491C28.6366 50.4828 30.0684 50.9591 31.0229 50.4828C32.4548 50.0066 33.4093 48.1016 33.8866 47.1491C33.8866 46.1966 33.8866 45.2441 33.8866 43.339C33.4093 40.9578 33.4093 39.529 33.8866 39.529C34.3638 39.0528 35.3184 39.0528 37.7048 39.529C40.5684 40.0053 41.5229 40.0053 41.5229 39.529C42.4775 38.5765 41.0457 37.624 41.5229 35.719C42.0002 34.2902 42.9548 33.3377 45.3411 31.909C48.682 30.004 50.1138 28.5752 53.4548 28.0989C62.0457 25.2414 65.3866 28.5752 67.7729 25.7177C69.682 23.8127 68.7275 19.5264 68.2502 17.6214C66.8184 12.3826 63.0002 9.52506 61.5684 8.57255C57.2729 5.71503 52.5002 5.23878 50.1138 4.76253C40.0911 3.81002 32.932 8.57256 31.0229 9.52506C28.6366 10.9538 23.3866 14.7638 20.5229 21.9076C18.6138 26.6702 19.0911 30.9565 19.0911 32.8615C20.0457 39.0528 23.3866 43.339 26.2502 47.1491Z" fill="#373434" stroke="black" stroke-width="2" stroke-miterlimit="10"/>
<path d="M107.387 97.6319C110.25 95.7269 113.114 94.2981 115.978 92.3931C117.409 91.9169 119.319 91.4406 121.705 91.4406C123.137 91.4406 123.614 91.9169 125.523 91.9169C128.864 92.3931 130.773 92.3931 132.205 91.9169C134.591 91.4406 134.591 90.4881 137.455 89.0594C138.887 88.5831 141.273 87.6306 141.75 88.5831C142.228 89.0594 141.75 90.9644 137.932 95.7269C136.023 96.6794 134.114 98.1082 131.25 99.0607C128.864 100.013 126.478 100.489 124.091 100.966C121.705 100.966 118.841 101.442 116.455 101.442C114.546 102.394 112.637 103.347 110.728 104.299" fill="white"/>
<path d="M107.387 97.6319C110.25 95.7269 113.114 94.2981 115.978 92.3931C117.409 91.9169 119.319 91.4406 121.705 91.4406C123.137 91.4406 123.614 91.9169 125.523 91.9169C128.864 92.3931 130.773 92.3931 132.205 91.9169C134.591 91.4406 134.591 90.4881 137.455 89.0594C138.887 88.5831 141.273 87.6306 141.75 88.5831C142.228 89.0594 141.75 90.9644 137.932 95.7269C136.023 96.6794 134.114 98.1082 131.25 99.0607C128.864 100.013 126.478 100.489 124.091 100.966C121.705 100.966 118.841 101.442 116.455 101.442C114.546 102.394 112.637 103.347 110.728 104.299" stroke="black" stroke-width="2" stroke-miterlimit="10"/>
<path d="M134.591 83.8206L135.546 81.4393V80.9631L131.727 70.4855L141.273 65.2467L141.75 64.7705L142.705 62.3892C143.182 62.3892 143.659 62.3892 143.659 61.9129C143.659 61.4367 143.659 60.9604 143.182 60.9604L126.955 54.7691C126.477 54.7691 126 54.7691 126 55.2454C126 55.7216 126 56.1979 126.477 56.1979L125.523 58.5792V59.0554L129.341 69.533L119.796 74.7718L119.318 75.248L118.364 77.6293C117.886 77.6293 117.409 77.6293 117.409 78.1055C117.409 78.5818 117.409 79.0581 117.886 79.0581L134.114 85.2493C134.591 85.2493 135.068 85.2493 135.068 84.7731C135.068 84.2968 135.068 83.8206 134.591 83.8206ZM128.386 57.1504L141.273 61.9129L140.796 63.3417L127.909 58.5792L128.386 57.1504ZM128.864 62.3892L128.386 60.4842L139.364 64.7705L137.932 65.723L128.864 62.3892ZM129.341 64.2942L135.068 66.6755L130.773 69.0567L129.341 64.2942ZM128.864 71.9143V72.8668C128.864 73.343 128.864 73.8193 129.341 73.8193C129.818 73.8193 130.296 73.8193 130.296 73.343L130.773 72.3905L133.159 79.5343L122.182 75.248L128.864 71.9143ZM133.159 82.8681L120.273 78.1055L120.75 76.6768L133.636 81.4393L133.159 82.8681Z" fill="#534741"/>
<path d="M57.7498 119.54L43.4316 104.299" stroke="black" stroke-width="2" stroke-miterlimit="10"/>
<path d="M50.1137 162.402C51.0682 164.307 50.5909 164.784 52.5 175.737C54.4091 189.073 56.7955 201.455 57.2728 202.408C58.2273 207.17 59.1818 209.551 59.1818 212.409C59.1818 213.838 59.6591 214.79 59.6591 215.743C60.6137 222.41 61.0909 227.649 61.5682 229.554C63 238.603 62.0455 253.843 62.0455 262.892C62.0455 264.797 62.0455 274.798 61.5682 295.753C61.5682 306.707 61.5682 322.9 62.0455 342.902C59.6591 343.379 55.8409 343.855 52.0228 343.379C47.7273 342.902 44.3864 341.95 42 340.997C41.5228 329.091 40.5682 319.566 40.5682 313.375C38.6591 298.135 38.1818 292.42 37.7046 280.989C37.2273 268.607 37.7046 267.654 37.7046 258.129C37.2273 244.318 35.7955 224.792 29.5909 203.36C23.8637 182.881 17.6591 179.547 19.5682 171.451C22.9091 158.116 44.3864 152.877 50.1137 162.402Z" fill="white" stroke="black" stroke-width="2" stroke-miterlimit="10"/>
<path d="M39.6132 164.784C39.6132 165.26 39.6132 165.26 40.0904 165.736C40.5677 166.689 43.4313 174.309 44.3859 177.642C45.3404 181.929 44.8632 188.596 43.4313 201.455C43.4313 201.455 41.5223 217.172 41.5223 220.982V221.458C41.5223 222.41 41.045 223.363 39.6132 237.174C38.6586 242.889 37.2268 254.796 35.795 264.797C34.8404 273.846 33.4086 285.276 31.9768 295.753C31.0223 307.183 29.5904 323.376 29.1132 343.379C26.2495 343.855 22.9086 344.331 19.0904 344.331C14.3177 344.331 10.4995 343.379 7.63589 342.902C7.63589 339.092 8.11316 333.377 8.11316 325.757C9.06771 295.277 10.0223 296.706 9.54498 285.276C9.06771 273.369 8.11316 264.321 9.54498 255.748C9.54498 254.796 10.4995 250.985 10.4995 246.223C10.4995 242.413 10.4995 240.984 10.4995 236.222C10.4995 229.554 10.9768 228.602 10.9768 223.363C10.9768 217.648 10.4995 213.361 10.0223 208.599C9.06771 198.598 7.15862 184.31 7.63589 173.832C7.63589 173.832 7.63589 173.356 7.63589 172.88C10.0223 160.974 33.4086 153.83 39.6132 164.784Z" fill="white" stroke="black" stroke-width="2" stroke-miterlimit="10"/>
<path d="M7.63631 142.4C8.11358 136.685 9.06812 135.256 10.0227 128.112C11.9318 117.158 10.9772 117.158 12.8863 109.062C14.3181 101.918 16.2272 97.1557 16.7045 95.7269C18.6136 90.9644 20.0454 87.1543 23.3863 82.8681C27.6818 77.153 33.409 72.8668 34.3636 73.8193C34.8409 74.2955 34.3636 74.7718 34.8409 75.7243C35.7954 78.5818 40.5681 79.058 41.9999 79.5343C43.909 80.0106 48.2045 80.4868 49.6363 78.1055C51.0681 76.6768 49.6363 74.2955 50.5909 74.2955C51.5454 73.8193 53.9318 78.1055 57.2727 83.3443C59.659 87.1543 61.5681 90.0119 62.9999 91.9169C68.2499 98.1082 73.4999 104.299 78.2727 110.015C78.7499 110.015 79.2272 109.538 79.2272 109.538L82.5681 107.633L85.4318 106.204C86.8636 105.252 88.2954 104.776 89.7272 103.823L94.0227 101.442C98.3181 99.0607 98.3181 99.0607 98.3181 99.0607C99.75 98.1082 100.704 97.6319 102.614 96.6794C103.568 96.2032 104.045 95.7269 104.523 95.7269C108.818 95.2507 114.068 107.157 112.159 109.062C112.159 109.062 111.204 110.015 110.25 110.491C110.25 110.491 109.773 110.967 108.818 111.443C106.432 113.348 96.409 118.587 95.9318 118.587C93.5454 120.016 90.6818 121.445 86.8636 124.302C86.8636 124.302 83.0454 126.683 78.2727 129.065C77.7954 129.541 76.3636 130.017 74.4545 130.017C73.0227 130.017 71.5909 129.541 71.1136 129.065C66.3409 125.255 62.0454 120.968 57.2727 117.158C56.7954 120.492 55.8409 125.731 55.8409 132.398C55.8409 135.256 55.8409 136.208 56.3181 144.305C57.7499 175.737 56.7954 169.07 56.7954 170.499C57.2727 171.927 57.7499 174.309 56.3181 177.166C54.8863 180.024 52.0227 181.453 50.5909 181.929C50.1136 182.405 47.2499 183.358 43.4318 183.834C41.9999 183.834 40.0909 183.834 32.9318 181.929C29.1136 180.976 26.2499 180.024 22.4318 179.071C16.2272 177.166 15.7499 176.214 12.8863 176.214C8.59085 175.737 7.15903 177.166 5.72721 175.737C3.81812 173.832 4.77267 171.451 5.72721 162.402C5.72721 160.497 6.20449 157.64 6.68176 151.925C7.15903 145.734 7.15903 145.257 7.63631 142.4Z" fill="#43436D" stroke="black" stroke-width="2" stroke-miterlimit="10"/>
<path d="M6.33565 360.309C8.44765 355.727 10.5596 351.527 10.5596 351.527H26.3996L60.1916 369.473H2.63965C2.63965 369.473 4.75165 364.891 6.33565 360.309Z" fill="black" stroke="black" stroke-width="0.75" stroke-miterlimit="10"/>
<path d="M39.3356 360.309C41.4476 355.727 43.5596 351.527 43.5596 351.527H59.3996L93.1916 369.473H35.6396C35.6396 369.473 37.7516 364.891 39.3356 360.309Z" fill="black" stroke="black" stroke-width="0.75" stroke-miterlimit="10"/>
</g>
<defs>
<clipPath id="clip0_690_227">
<rect width="147" height="361" fill="white"/>
</clipPath>
</defs>
</svg>
