<svg width="22" height="24" viewBox="0 0 22 24" fill="none" xmlns="http://www.w3.org/2000/svg">
<path d="M13.25 9.77778V17.5556M8.75 9.77778V17.5556M4.25 5.33333V18.4444C4.25 19.689 4.25 20.3109 4.49524 20.7862C4.71095 21.2043 5.0549 21.545 5.47828 21.758C5.9591 22 6.58886 22 7.84652 22H14.1535C15.4111 22 16.04 22 16.5208 21.758C16.9442 21.545 17.2893 21.2043 17.505 20.7862C17.75 20.3113 17.75 19.69 17.75 18.4479V5.33333M4.25 5.33333H6.5M4.25 5.33333H2M17.75 5.33333H15.5M17.75 5.33333H20M6.5 5.33333H15.5M6.5 5.33333C6.5 4.29791 6.5 3.78046 6.67127 3.37207C6.89963 2.82757 7.33736 2.3947 7.88868 2.16916C8.30216 2 8.82661 2 9.875 2H12.125C13.1734 2 13.6975 2 14.1111 2.16916C14.6623 2.3947 15.1003 2.82757 15.3287 3.37207C15.4999 3.78044 15.5 4.29791 15.5 5.33333" stroke="#43436D" stroke-width="2" stroke-linecap="round" stroke-linejoin="round"/>
</svg>
