<svg width="20" height="20" viewBox="0 0 20 20" fill="none" xmlns="http://www.w3.org/2000/svg">
<path d="M19.9955 18.2464V20L5.96071 19.9887L7.92504 18.2464H19.9955ZM16.8446 0C17.5323 0 17.8893 0.05343 18.8265 0.839438C19.7832 1.64131 19.9554 2.26661 19.9955 2.96287C20.038 3.71214 19.7853 4.62254 19.0829 5.33425L5.75343 18.6755C5.53656 18.8738 5.4911 18.8634 5.34597 18.9064L1.08116 19.9737C0.467253 20.0985 -0.109118 19.5358 0.0176672 18.9093L1.08408 14.6407C1.12578 14.5013 1.13955 14.4249 1.31471 14.2333C5.77554 9.76812 10.1542 5.21946 14.698 0.839438C15.2907 0.282178 16.1565 0 16.8446 0ZM3.34243 14.6858L2.72644 15.3023L2.07333 17.9162L4.68494 17.2625C4.89054 17.0572 5.09574 16.8522 5.30176 16.6473L3.34243 14.6858ZM15.9275 6.09814L13.9248 4.09409L4.54397 13.4832L6.50914 15.4505C9.65749 12.3415 12.8467 9.27222 15.9275 6.09814ZM17.1061 4.87258C17.3638 4.60209 17.6207 4.33077 17.8768 4.05819C18.5746 3.29597 18.0616 1.78156 16.9147 1.7298C16.8913 1.72897 16.868 1.72897 16.8446 1.72897C16.4855 1.73565 16.136 1.88425 15.8804 2.13679L15.1268 2.89149L17.1061 4.87258Z" fill="#43436D"/>
</svg>
