<svg width="22" height="24" viewBox="0 0 43 43" fill="none" xmlns="http://www.w3.org/2000/svg">
<path d="M41.2632 31.6268L34.8728 16.7022C32.7086 11.6389 28.7274 11.4347 26.0528 16.2531L22.1941 23.2152C20.2341 26.7472 16.5795 27.0535 14.0478 23.8889L13.5986 23.3172C10.9649 20.0097 7.24906 20.4181 5.35031 24.1952L1.83864 31.2389C-0.631777 36.1389 2.94114 41.9168 8.41281 41.9168H34.4645C39.7728 41.9168 43.3457 36.5064 41.2632 31.6268ZM11.2303 13.3335C12.8548 13.3335 14.4127 12.6882 15.5613 11.5395C16.71 10.3909 17.3553 8.83295 17.3553 7.2085C17.3553 5.58404 16.71 4.02613 15.5613 2.87747C14.4127 1.72881 12.8548 1.0835 11.2303 1.0835C9.60585 1.0835 8.04794 1.72881 6.89928 2.87747C5.75062 4.02613 5.10531 5.58404 5.10531 7.2085C5.10531 8.83295 5.75062 10.3909 6.89928 11.5395C8.04794 12.6882 9.60585 13.3335 11.2303 13.3335Z" stroke="#43436D" stroke-width="3" stroke-linecap="round" stroke-linejoin="round"/>
</svg>
